<svg width="300" height="267" viewBox="0 0 300 267" fill="none" xmlns="http://www.w3.org/2000/svg">
<ellipse cx="147.85" cy="141.487" rx="138.992" ry="125.513" fill="#D9D9D9"/>
<path d="M46.7843 84.1666L37.1049 74.4973C16.6124 54.0261 16.5696 20.793 37.0094 0.269163V0.269163L83.7937 47.0048L46.7843 84.1666Z" fill="#D9D9D9"/>
<path d="M262.991 83.8975L216.206 37.1618L253.216 -1.84873e-06L262.895 9.66931C283.388 30.1405 283.43 63.3736 262.991 83.8975V83.8975Z" fill="#D9D9D9"/>
<path d="M108.56 105.164V148.921H117.468V159.647H108.56V176.827H97.0924V159.647H63.543V149.016C69.103 141.739 74.5682 134.431 79.9386 127.09C85.309 119.75 90.7742 112.441 96.3342 105.164H108.56ZM97.0924 149.111V126.995C97.0924 126.552 97.0924 125.761 97.0924 124.622C97.1556 123.483 97.2188 122.281 97.2819 121.015L76.432 149.111H97.0924Z" fill="white"/>
<path d="M172.598 141.613C172.598 147.877 171.934 153.319 170.608 157.939C169.281 162.495 167.417 166.291 165.016 169.329C162.678 172.303 159.898 174.518 156.676 175.973C153.454 177.428 149.947 178.156 146.156 178.156C142.492 178.156 139.048 177.428 135.826 175.973C132.667 174.518 129.887 172.303 127.486 169.329C125.148 166.291 123.316 162.495 121.989 157.939C120.663 153.319 119.999 147.877 119.999 141.613C119.999 135.285 120.663 129.843 121.989 125.287C123.316 120.667 125.148 116.871 127.486 113.897C129.887 110.859 132.667 108.613 135.826 107.157C139.048 105.702 142.492 104.974 146.156 104.974C149.947 104.974 153.454 105.702 156.676 107.157C159.898 108.613 162.678 110.859 165.016 113.897C167.417 116.871 169.281 120.667 170.608 125.287C171.934 129.843 172.598 135.285 172.598 141.613ZM159.33 141.613C159.33 136.55 158.951 132.374 158.192 129.084C157.497 125.73 156.55 123.104 155.349 121.205C154.149 119.244 152.727 117.883 151.085 117.124C149.505 116.301 147.862 115.89 146.156 115.89C144.514 115.89 142.903 116.301 141.323 117.124C139.807 117.883 138.448 119.244 137.248 121.205C136.047 123.104 135.068 125.73 134.31 129.084C133.615 132.374 133.267 136.55 133.267 141.613C133.267 146.612 133.615 150.756 134.31 154.047C135.068 157.337 136.047 159.963 137.248 161.925C138.448 163.887 139.807 165.247 141.323 166.007C142.903 166.766 144.514 167.146 146.156 167.146C147.862 167.146 149.505 166.766 151.085 166.007C152.727 165.247 154.149 163.887 155.349 161.925C156.55 159.963 157.497 157.337 158.192 154.047C158.951 150.756 159.33 146.612 159.33 141.613Z" fill="white"/>
<path d="M221.472 105.164V148.921H230.381V159.647H221.472V176.827H210.005V159.647H176.455V149.016C182.015 141.739 187.481 134.431 192.851 127.09C198.221 119.75 203.687 112.441 209.247 105.164H221.472ZM210.005 149.111V126.995C210.005 126.552 210.005 125.761 210.005 124.622C210.068 123.483 210.131 122.281 210.194 121.015L189.344 149.111H210.005Z" fill="white"/>
<path d="M79.6232 52.4872C79.1298 57.0513 79.7713 66.1795 86.2847 66.1795C92.7981 66.1795 93.6861 57.0513 92.9459 52.4872" stroke="white" stroke-width="2" stroke-linecap="round"/>
<path d="M56.8377 79.8718C56.3443 84.4359 56.9857 93.5641 63.4992 93.5641C70.0126 93.5641 70.9006 84.4359 70.1604 79.8718" stroke="white" stroke-width="2" stroke-linecap="round"/>
</svg>
